<mxfile host="app.diagrams.net" modified="2022-02-16T06:19:27.547Z" agent="5.0 (Windows NT 10.0; Win64; x64) AppleWebKit/537.36 (KHTML, like Gecko) Chrome/87.0.4280.66 Safari/537.36" etag="kSB-Yq81iFfA-t6OJt2p" version="16.5.6" type="github">
  <diagram id="piDafpqhtRUU5qUU-vj8" name="Page-1">
    <mxGraphModel dx="1422" dy="794" grid="1" gridSize="10" guides="1" tooltips="1" connect="1" arrows="1" fold="1" page="1" pageScale="1" pageWidth="827" pageHeight="1169" math="0" shadow="0">
      <root>
        <mxCell id="0" />
        <mxCell id="1" parent="0" />
        <mxCell id="gxOagwzrapvZzv7ssLES-1" value="1. Requirements&lt;br&gt;2. Functional Requirements&lt;br&gt;3. Component Architecture&lt;br&gt;4. Data Model&lt;br&gt;5. Data API&lt;br&gt;6. Data Store&lt;br&gt;7. Optimization&lt;br&gt;8. Accessibility" style="rounded=0;whiteSpace=wrap;html=1;align=left;" vertex="1" parent="1">
          <mxGeometry x="50" y="80" width="180" height="140" as="geometry" />
        </mxCell>
        <mxCell id="gxOagwzrapvZzv7ssLES-3" value="1. Infinite Scrollable News Feed based on Users subscription&lt;br&gt;2. USer can share the feed&lt;br&gt;3. User can add comments to the feed, links, images and videos" style="rounded=0;whiteSpace=wrap;html=1;align=left;" vertex="1" parent="1">
          <mxGeometry x="50" y="290" width="260" height="160" as="geometry" />
        </mxCell>
        <mxCell id="gxOagwzrapvZzv7ssLES-4" value="Requirements" style="text;html=1;strokeColor=none;fillColor=none;align=center;verticalAlign=middle;whiteSpace=wrap;rounded=0;" vertex="1" parent="1">
          <mxGeometry x="70" y="250" width="60" height="30" as="geometry" />
        </mxCell>
        <mxCell id="gxOagwzrapvZzv7ssLES-6" value="" style="rounded=0;whiteSpace=wrap;html=1;container=1;" vertex="1" parent="1">
          <mxGeometry x="410" y="120" width="380" height="290" as="geometry" />
        </mxCell>
        <mxCell id="gxOagwzrapvZzv7ssLES-9" value="" style="verticalLabelPosition=bottom;shadow=0;dashed=0;align=center;html=1;verticalAlign=top;strokeWidth=1;shape=mxgraph.mockup.containers.userMale;strokeColor2=#008cff;labelBorderColor=#000000;labelBackgroundColor=#000000;" vertex="1" parent="gxOagwzrapvZzv7ssLES-6">
          <mxGeometry x="30" y="20" width="40" height="40" as="geometry" />
        </mxCell>
        <mxCell id="gxOagwzrapvZzv7ssLES-10" value="John Doe&amp;nbsp; &amp;nbsp; &amp;nbsp; &amp;nbsp; &amp;nbsp; &amp;nbsp; &amp;nbsp; &amp;nbsp; &amp;nbsp; &amp;nbsp; &amp;nbsp; &amp;nbsp; &amp;nbsp; &amp;nbsp; &amp;nbsp; &amp;nbsp; &amp;nbsp; &amp;nbsp; &amp;nbsp; &amp;nbsp; &amp;nbsp; &amp;nbsp; &amp;nbsp; &amp;nbsp; &amp;nbsp; &amp;nbsp; &amp;nbsp; 5h" style="rounded=0;whiteSpace=wrap;html=1;align=left;" vertex="1" parent="1">
          <mxGeometry x="490" y="140" width="250" height="40" as="geometry" />
        </mxCell>
        <mxCell id="gxOagwzrapvZzv7ssLES-11" value="Feed Content(Text, Image, Videos)" style="rounded=1;whiteSpace=wrap;html=1;" vertex="1" parent="1">
          <mxGeometry x="440" y="215" width="340" height="100" as="geometry" />
        </mxCell>
        <mxCell id="gxOagwzrapvZzv7ssLES-12" value="" style="rounded=1;whiteSpace=wrap;html=1;labelBackgroundColor=#000000;labelBorderColor=default;fillColor=#dae8fc;strokeColor=#6c8ebf;" vertex="1" parent="1">
          <mxGeometry x="430" y="330" width="340" height="60" as="geometry" />
        </mxCell>
        <mxCell id="gxOagwzrapvZzv7ssLES-15" value="Share" style="rounded=1;whiteSpace=wrap;html=1;" vertex="1" parent="1">
          <mxGeometry x="670" y="350" width="80" height="30" as="geometry" />
        </mxCell>
        <mxCell id="gxOagwzrapvZzv7ssLES-16" value="Comment" style="rounded=1;whiteSpace=wrap;html=1;" vertex="1" parent="1">
          <mxGeometry x="560" y="350" width="80" height="30" as="geometry" />
        </mxCell>
        <mxCell id="gxOagwzrapvZzv7ssLES-17" value="Like" style="rounded=1;whiteSpace=wrap;html=1;" vertex="1" parent="1">
          <mxGeometry x="450" y="350" width="80" height="30" as="geometry" />
        </mxCell>
        <mxCell id="gxOagwzrapvZzv7ssLES-18" value="" style="rounded=0;whiteSpace=wrap;html=1;labelBackgroundColor=#000000;labelBorderColor=default;fontColor=default;gradientColor=none;" vertex="1" parent="1">
          <mxGeometry x="414" y="470" width="386" height="200" as="geometry" />
        </mxCell>
        <mxCell id="gxOagwzrapvZzv7ssLES-19" value="" style="rounded=0;whiteSpace=wrap;html=1;labelBackgroundColor=#000000;labelBorderColor=default;fontColor=default;gradientColor=none;" vertex="1" parent="1">
          <mxGeometry x="414" y="470" width="386" height="100" as="geometry" />
        </mxCell>
        <mxCell id="gxOagwzrapvZzv7ssLES-23" value="" style="verticalLabelPosition=bottom;shadow=0;dashed=0;align=center;html=1;verticalAlign=top;strokeWidth=1;shape=mxgraph.mockup.containers.userMale;strokeColor2=#008cff;labelBorderColor=#000000;labelBackgroundColor=#000000;" vertex="1" parent="1">
          <mxGeometry x="430" y="600" width="40" height="40" as="geometry" />
        </mxCell>
        <mxCell id="gxOagwzrapvZzv7ssLES-24" value="" style="verticalLabelPosition=bottom;shadow=0;dashed=0;align=center;html=1;verticalAlign=top;strokeWidth=1;shape=mxgraph.mockup.containers.userMale;strokeColor2=#008cff;labelBorderColor=#000000;labelBackgroundColor=#000000;" vertex="1" parent="1">
          <mxGeometry x="430" y="500" width="40" height="40" as="geometry" />
        </mxCell>
        <mxCell id="gxOagwzrapvZzv7ssLES-25" value="Comment" style="rounded=1;whiteSpace=wrap;html=1;" vertex="1" parent="1">
          <mxGeometry x="490" y="600" width="287" height="50" as="geometry" />
        </mxCell>
        <mxCell id="gxOagwzrapvZzv7ssLES-26" value="Comment" style="rounded=1;whiteSpace=wrap;html=1;" vertex="1" parent="1">
          <mxGeometry x="490" y="495" width="280" height="50" as="geometry" />
        </mxCell>
        <mxCell id="gxOagwzrapvZzv7ssLES-27" value="" style="rounded=1;whiteSpace=wrap;html=1;labelBackgroundColor=#000000;labelBorderColor=default;fillColor=#dae8fc;strokeColor=#6c8ebf;" vertex="1" parent="1">
          <mxGeometry x="430" y="710" width="340" height="60" as="geometry" />
        </mxCell>
        <mxCell id="gxOagwzrapvZzv7ssLES-28" value="" style="rounded=1;whiteSpace=wrap;html=1;labelBackgroundColor=#FFFFFF;labelBorderColor=default;fontColor=#000000;gradientColor=none;glass=0;opacity=0;" vertex="1" parent="1">
          <mxGeometry x="395" y="430" width="430" height="370" as="geometry" />
        </mxCell>
        <mxCell id="gxOagwzrapvZzv7ssLES-29" value="Comment List" style="text;html=1;strokeColor=none;fillColor=none;align=center;verticalAlign=middle;whiteSpace=wrap;rounded=0;glass=0;labelBackgroundColor=#FFFFFF;labelBorderColor=default;fontColor=#000000;opacity=0;" vertex="1" parent="1">
          <mxGeometry x="560" y="440" width="70" height="30" as="geometry" />
        </mxCell>
      </root>
    </mxGraphModel>
  </diagram>
</mxfile>
